<?xml version="1.0" encoding="utf-8"?>
<!-- Generator: Adobe Illustrator 24.0.0, SVG Export Plug-In . SVG Version: 6.00 Build 0)  -->
<svg version="1.1" id="图层_1" xmlns="http://www.w3.org/2000/svg" xmlns:xlink="http://www.w3.org/1999/xlink" x="0px" y="0px"
	 viewBox="0 0 382 463" style="enable-background:new 0 0 382 463;" xml:space="preserve">
<style type="text/css">
	.st0{fill:none;stroke:#1E1E1E;stroke-width:2;stroke-linecap:round;stroke-linejoin:round;}
	.st1{fill:#FFFFFF;stroke:#FFFFFF;stroke-width:10;}
	.st2{fill:#FFFFFF;}
	.st3{fill:#1E1E1E;}
	.st4{font-family:'Arial-Black';}
	.st5{font-size:120px;}
</style>
<path class="st0" d="M145.2,250.1c0,0-11.6,3.7-12.1,2.7c-0.5-1,2.2,0.8,0.1-7.3c-2.1-8.1-23.9-16.1-23.2-14.1
	c0.7,2.1,34.6,143.4,70.7,201.4c0,0,6,7.1,2.6,18.9"/>
<path class="st1" d="M110.3,223.3l-1.9,4.6l2.7,1.1l2.3-1.8C113.4,227.3,110.3,223.3,110.3,223.3z M110.3,223.3
	c3.1,3.9,3.1,3.9,3.1,3.9l0,0l0,0l0,0l0.2-0.1c1-0.8,2.1-1.7,3.1-2.6c2.9-2.5,5.8-5,8.6-7.6c7-6.5,16.3-15.8,25.4-26.8
	c9.1-11,18-23.9,24.2-37.6c6.2-13.7,9.8-28.5,7.7-43.3c-6.5-45.6-50.8-76.3-98.4-69.7C36.6,46.2,2.6,87.7,9,133.3
	c2.1,14.7,9.7,28,19.4,39.5c9.8,11.5,22,21.4,33.7,29.5c11.8,8.1,23.3,14.5,31.9,18.9c3.4,1.7,6.9,3.4,10.3,5c1.2,0.6,2.2,1,2.9,1.3
	l0.8,0.3l0.2,0.1l0.1,0l0,0l0,0C108.4,228,108.4,228,110.3,223.3L110.3,223.3z"/>
<path class="st2" d="M110,228.2l-7.6,23c0,0,6.2,3.4,15.8,0.9l-6-23.8L110,228.2z"/>
<path class="st3" d="M107,233.1l7-0.1c0.6,0,1,0.4,1,1l0,0c0,0.6-0.4,1-1,1l-7,0.1c-0.6,0-1-0.4-1-1l0,0
	C106,233.6,106.4,233.1,107,233.1z"/>
<path class="st0" d="M294.3,242.1c-1.1-0.1-27.3,5.2-25-5.5c0,0,0.5-2.9,3.5-6.5c0,0,6.8-9.3-3.6-12c0,0-9.4-1.8-12-5L152,368.5
	l14.8,27.2c0,0,13.5,25.8,32.3,35.9"/>
<path class="st1" d="M257.4,201l-2.9,4.1l2.5,1.7l2.7-1.4L257.4,201L257.4,201z M257.4,201c0.7,1.5,1.5,3,2.3,4.5l0,0l0,0l0.1,0
	c0,0,0.1-0.1,0.2-0.1c0.2-0.1,0.4-0.2,0.8-0.4c0.9-0.5,1.9-1,2.8-1.5c3.4-1.9,6.7-3.8,10-5.8c8.2-5,19.3-12.3,30.5-21.4
	c11.2-9.1,22.7-20,31.6-32.3c8.9-12.3,15.6-26.3,16.6-41.3c3.3-46.6-33.5-86.3-81.5-89.7c-48.1-3.3-90.1,31-93.4,77.6
	c-1.1,15.1,3.5,29.8,10.6,43.2c7.1,13.4,16.9,25.9,26.7,36.4c9.8,10.5,19.7,19.3,27.2,25.4c3,2.4,6,4.8,9.1,7.1
	c1.1,0.9,2.3,1.7,3.5,2.5l0.1,0l0,0l0,0C254.6,205.1,254.6,205.1,257.4,201L257.4,201z"/>
<path class="st2" d="M258,207.5l2.6,24c0,0-6.8,2.1-15.7-2.3l10.8-22.1L258,207.5z"/>
<path class="st3" d="M253.1,210.6l6,0.3c0.6,0,1,0.5,0.9,1.1l0,0c0,0.6-0.5,1-1.1,0.9l-6-0.3c-0.6,0-1-0.5-0.9-1.1l0,0
	C252.1,211,252.6,210.6,253.1,210.6z"/>
<text transform="matrix(0.978 -0.2084 0.2084 0.978 65.7085 186.2921)" class="st4 st5">6.</text>
<text transform="matrix(0.9999 1.680237e-02 -1.680237e-02 0.9999 221.6254 151.847)" class="st4 st5">0</text>
</svg>
