<?xml version="1.0" encoding="utf-8"?>
<!-- Generator: Adobe Illustrator 24.0.0, SVG Export Plug-In . SVG Version: 6.00 Build 0)  -->
<svg version="1.1" id="layer_1" xmlns="http://www.w3.org/2000/svg" xmlns:xlink="http://www.w3.org/1999/xlink" x="0px" y="0px"
	 viewBox="0 0 333 333" style="enable-background:new 0 0 333 333;" xml:space="preserve">
<style type="text/css">
	.st0{fill:#EDEEEF;}
</style>
<path class="st0" d="M194.6,16.7c8.8,15.6,3.6,35.8-11.9,44.7L86,117.5c-2.6,1.6-4.2,4.2-4.2,7.3v87.8c0,3.1,1.6,5.7,4.2,7.3
	l76.4,44.2c2.6,1.6,5.7,1.6,8.3,0l76.4-44.2c2.6-1.6,4.2-4.2,4.2-7.3v-54.5l-69.1,39.5c-15.6,8.8-35.3,3.6-44.2-11.9v-0.5
	c-8.8-15.6-3.1-35.8,12.5-44.7l98.7-56.1c30.1-17.1,67,4.7,67,39.5v95.6c0,22.3-11.9,43.1-31.2,54.5l-87.8,50.9
	c-18.7,10.9-42.1,10.9-61.3,0L48,273.4c-19.2-11.4-31.2-31.7-31.2-54V118c0-22.3,11.9-43.1,31.2-54L150.4,4.3
	C165.5-4.6,185.2,0.6,194.6,16.7C194.6,16.2,194.6,16.7,194.6,16.7z"/>
</svg>
