<?xml version="1.0" encoding="utf-8"?>
<!-- Generator: Adobe Illustrator 24.0.0, SVG Export Plug-In . SVG Version: 6.00 Build 0)  -->
<svg version="1.1" id="Layer_1" xmlns="http://www.w3.org/2000/svg" xmlns:xlink="http://www.w3.org/1999/xlink" x="0px" y="0px"
	 viewBox="0 0 63.8 64" style="enable-background:new 0 0 63.8 64;" xml:space="preserve">
<style type="text/css">
	.st0{fill:#1176A3;}
</style>
<title>gechiui-logo</title>
<path class="st0" d="M37.3,3.2c1.7,3,0.7,6.9-2.3,8.6L16.4,22.6c-0.5,0.3-0.8,0.8-0.8,1.4v16.9c0,0.6,0.3,1.1,0.8,1.4l14.7,8.5
	c0.5,0.3,1.1,0.3,1.6,0l14.7-8.5c0.5-0.3,0.8-0.8,0.8-1.4V30.4l-13.3,7.6c-3,1.7-6.8,0.7-8.5-2.3c0,0,0-0.1,0-0.1
	c-1.7-3-0.6-6.9,2.4-8.6l19-10.8c5.8-3.3,12.9,0.9,12.9,7.6v18.4c0,4.3-2.3,8.3-6,10.5l-16.9,9.8c-3.6,2.1-8.1,2.1-11.8,0L9.1,52.6
	c-3.7-2.2-6-6.1-6-10.4V22.7c0-4.3,2.3-8.3,6-10.4L28.8,0.8C31.7-0.9,35.5,0.1,37.3,3.2C37.3,3.1,37.3,3.2,37.3,3.2z"/>
</svg>
